<svg width="20" height="20" viewBox="0 0 20 20" fill="none" xmlns="http://www.w3.org/2000/svg">
<path d="M18.3333 8.33341H1.66666M9.16666 11.6667H4.99999M1.66666 6.83341L1.66666 13.1667C1.66666 14.1002 1.66666 14.5669 1.84831 14.9234C2.0081 15.237 2.26307 15.492 2.57667 15.6518C2.93319 15.8334 3.3999 15.8334 4.33332 15.8334L15.6667 15.8334C16.6001 15.8334 17.0668 15.8334 17.4233 15.6518C17.7369 15.492 17.9919 15.237 18.1517 14.9234C18.3333 14.5669 18.3333 14.1002 18.3333 13.1667V6.83342C18.3333 5.89999 18.3333 5.43328 18.1517 5.07677C17.9919 4.76316 17.7369 4.50819 17.4233 4.34841C17.0668 4.16675 16.6001 4.16675 15.6667 4.16675L4.33332 4.16675C3.3999 4.16675 2.93319 4.16675 2.57667 4.3484C2.26307 4.50819 2.0081 4.76316 1.84831 5.07676C1.66666 5.43328 1.66666 5.89999 1.66666 6.83341Z" stroke="#475569" stroke-width="1.5" stroke-linecap="round" stroke-linejoin="round"/>
</svg>
