<svg width="21" height="20" viewBox="0 0 21 20" fill="none" xmlns="http://www.w3.org/2000/svg">
<path d="M10.0688 2.8778C10.2609 2.48869 10.3569 2.29413 10.4873 2.23197C10.6007 2.17789 10.7325 2.17789 10.8459 2.23197C10.9763 2.29413 11.0723 2.48869 11.2644 2.8778L13.0866 6.56944C13.1433 6.68432 13.1717 6.74176 13.2131 6.78635C13.2498 6.82584 13.2938 6.85783 13.3427 6.88056C13.3979 6.90623 13.4613 6.91549 13.588 6.93402L17.6641 7.5298C18.0933 7.59253 18.3079 7.6239 18.4072 7.72874C18.4937 7.81995 18.5343 7.94529 18.5178 8.06985C18.4989 8.21302 18.3436 8.36436 18.0328 8.66702L15.0845 11.5387C14.9926 11.6282 14.9466 11.673 14.9169 11.7263C14.8907 11.7734 14.8738 11.8252 14.8673 11.8788C14.86 11.9393 14.8709 12.0025 14.8925 12.129L15.5882 16.1851C15.6616 16.6129 15.6983 16.8269 15.6293 16.9538C15.5693 17.0642 15.4627 17.1417 15.3391 17.1646C15.1971 17.1909 15.005 17.0899 14.6208 16.8879L10.9769 14.9716C10.8634 14.9119 10.8066 14.882 10.7468 14.8703C10.6938 14.8599 10.6394 14.8599 10.5864 14.8703C10.5266 14.882 10.4698 14.9119 10.3563 14.9716L6.71235 16.8879C6.32818 17.0899 6.13609 17.1909 5.99406 17.1646C5.87049 17.1417 5.76385 17.0642 5.70387 16.9538C5.63492 16.8269 5.67161 16.6129 5.74498 16.1851L6.44066 12.129C6.46235 12.0025 6.47319 11.9393 6.46585 11.8788C6.45936 11.8252 6.44251 11.7734 6.41626 11.7263C6.3866 11.673 6.34065 11.6282 6.24874 11.5387L3.30038 8.66702C2.98964 8.36436 2.83426 8.21302 2.81536 8.06985C2.79891 7.94529 2.83955 7.81995 2.92596 7.72874C3.02528 7.6239 3.23989 7.59253 3.66912 7.5298L7.74518 6.93402C7.87194 6.91549 7.93532 6.90623 7.99052 6.88056C8.03939 6.85783 8.08339 6.82584 8.12007 6.78635C8.16151 6.74176 8.18986 6.68432 8.24656 6.56944L10.0688 2.8778Z" stroke="#475569" stroke-width="1.5" stroke-linecap="round" stroke-linejoin="round"/>
</svg>
