<svg width="20" height="20" viewBox="0 0 20 20" fill="none" xmlns="http://www.w3.org/2000/svg">
<path d="M6.66663 6.66675H6.67496M1.66663 4.33341L1.66663 8.06218C1.66663 8.46983 1.66663 8.67365 1.71268 8.86547C1.7535 9.03553 1.82084 9.1981 1.91223 9.34722C2.0153 9.51542 2.15942 9.65954 2.44767 9.94779L8.8382 16.3383C9.82824 17.3284 10.3233 17.8234 10.8941 18.0089C11.3962 18.172 11.9371 18.172 12.4392 18.0089C13.01 17.8234 13.505 17.3284 14.4951 16.3383L16.3382 14.4952C17.3282 13.5051 17.8233 13.0101 18.0087 12.4393C18.1719 11.9372 18.1719 11.3963 18.0087 10.8942C17.8233 10.3234 17.3282 9.82836 16.3382 8.83832L9.94767 2.4478C9.65942 2.15954 9.51529 2.01542 9.3471 1.91235C9.19798 1.82097 9.0354 1.75363 8.86534 1.7128C8.67353 1.66675 8.46971 1.66675 8.06205 1.66675L4.33329 1.66675C3.39987 1.66675 2.93316 1.66675 2.57664 1.8484C2.26304 2.00819 2.00807 2.26316 1.84828 2.57676C1.66663 2.93328 1.66663 3.39999 1.66663 4.33341ZM7.08329 6.66675C7.08329 6.89687 6.89675 7.08341 6.66663 7.08341C6.43651 7.08341 6.24996 6.89687 6.24996 6.66675C6.24996 6.43663 6.43651 6.25008 6.66663 6.25008C6.89675 6.25008 7.08329 6.43663 7.08329 6.66675Z" stroke="#475569" stroke-width="1.5" stroke-linecap="round" stroke-linejoin="round"/>
</svg>
